<svg width="184" height="183" viewBox="0 0 184 183" fill="none" xmlns="http://www.w3.org/2000/svg">
<path d="M110.375 106.451L115.319 101.164C124.42 91.4302 123.907 76.1617 114.174 67.0605L130.653 49.4365C150.12 67.639 151.145 98.1761 132.943 117.643L127.999 122.93C123.448 127.797 115.814 128.053 110.947 123.502C106.081 118.952 105.824 111.318 110.375 106.451Z" fill="#B144E4"/>
<path d="M127.997 122.933L132.94 117.646C142.042 107.912 157.31 107.4 167.044 116.501L183.523 98.8772C164.056 80.6747 133.519 81.6997 115.317 101.167L110.373 106.454C105.822 111.32 106.078 118.955 110.945 123.505C115.812 128.056 123.446 127.8 127.997 122.933Z" fill="#FFE100"/>
<path d="M55.5267 59.1292L50.5829 64.4164C41.4817 74.1499 26.2132 74.6624 16.4797 65.5611L0.000488281 83.1851C19.4674 101.388 50.0044 100.363 68.2069 80.8957L73.1507 75.6085C77.7013 70.7418 77.445 63.1075 72.5783 58.5569C67.7116 54.0063 60.0773 54.2625 55.5267 59.1292Z" fill="#B144E4"/>
<path d="M73.1504 75.6085L68.2066 80.8957C59.1054 90.6291 59.6179 105.898 69.3513 114.999L52.8721 132.623C33.4052 114.42 32.3802 83.8833 50.5827 64.4164L55.5265 59.1292C60.0771 54.2625 67.7114 54.0063 72.5781 58.5569C77.4448 63.1075 77.701 70.7418 73.1504 75.6085Z" fill="#17ECDF"/>
</svg>
