<svg width="187" height="186" viewBox="0 0 187 186" fill="none" xmlns="http://www.w3.org/2000/svg">
<path d="M141.419 108.94L136.287 114.428C126.84 124.531 110.991 125.063 100.887 115.616L83.7812 133.91C103.988 152.805 135.686 151.741 154.581 131.534L159.713 126.045C164.437 120.994 164.171 113.069 159.119 108.345C154.067 103.622 146.142 103.888 141.419 108.94Z" fill="#B144E4"/>
<path d="M159.715 126.042L154.583 131.53C145.136 141.633 145.668 157.483 155.771 166.93L138.666 185.224C118.458 166.329 117.395 134.631 136.289 114.424L141.421 108.936C146.145 103.884 154.069 103.618 159.121 108.342C164.173 113.065 164.439 120.99 159.715 126.042Z" fill="#FB61A2"/>
<path d="M26.8495 59.1821L31.9813 53.6939C41.4286 43.5903 40.8966 27.7412 30.7931 18.2939L47.8989 -0.00012207C68.106 18.8945 69.17 50.5927 50.2753 70.7997L45.1436 76.288C40.4199 81.3397 32.4954 81.6057 27.4436 76.8821C22.3919 72.1584 22.1259 64.2339 26.8495 59.1821Z" fill="#B144E4"/>
<path d="M45.1408 76.2909L50.2725 70.8027C59.7198 60.6991 75.5689 60.1671 85.6725 69.6144L102.778 51.3204C82.5713 32.4258 50.8731 33.4897 31.9785 53.6968L26.8467 59.185C22.1231 64.2368 22.3891 72.1613 27.4408 76.885C32.4926 81.6086 40.4171 81.3426 45.1408 76.2909Z" fill="#17ECDF"/>
</svg>
