<svg width="217" height="395" viewBox="0 0 217 395" fill="none" xmlns="http://www.w3.org/2000/svg">
<path d="M171.848 216.171L166.717 221.659C157.269 231.763 141.42 232.295 131.317 222.847L114.211 241.141C134.418 260.036 166.116 258.972 185.011 238.765L190.143 233.277C194.866 228.225 194.6 220.301 189.548 215.577C184.497 210.853 176.572 211.119 171.848 216.171Z" fill="#B144E4"/>
<path d="M190.145 233.273L185.013 238.761C175.566 248.865 176.098 264.714 186.201 274.161L169.095 292.455C148.888 273.561 147.824 241.863 166.719 221.655L171.851 216.167C176.574 211.115 184.499 210.849 189.551 215.573C194.602 220.297 194.868 228.221 190.145 233.273Z" fill="#FB61A2"/>
<path d="M73.5863 318.588L68.4545 324.077C59.0072 334.18 43.1581 334.712 33.0546 325.265L15.9487 343.559C36.1558 362.454 67.854 361.39 86.7486 341.183L91.8803 335.694C96.604 330.643 96.338 322.718 91.2862 317.994C86.2345 313.271 78.3099 313.537 73.5863 318.588Z" fill="#B144E4"/>
<path d="M91.8819 335.692L86.7502 341.18C77.3029 351.284 77.8348 367.133 87.9384 376.58L70.8325 394.874C50.6255 375.98 49.5615 344.281 68.4561 324.074L73.5879 318.586C78.3115 313.534 86.2361 313.268 91.2878 317.992C96.3396 322.716 96.6056 330.64 91.8819 335.692Z" fill="#12BBF0"/>
<path d="M119.02 162.654L124.152 157.166C133.599 147.063 133.067 131.214 122.964 121.766L140.07 103.472C160.277 122.367 161.341 154.065 142.446 174.272L137.314 179.76C132.591 184.812 124.666 185.078 119.615 180.354C114.563 175.631 114.297 167.706 119.02 162.654Z" fill="#B144E4"/>
<path d="M137.313 179.763L142.444 174.274C151.892 164.171 167.741 163.639 177.844 173.086L194.95 154.792C174.743 135.897 143.045 136.961 124.15 157.168L119.019 162.657C114.295 167.708 114.561 175.633 119.613 180.357C124.664 185.08 132.589 184.814 137.313 179.763Z" fill="#FFE100"/>
<path d="M62.0873 113.533L56.9555 119.021C47.5082 129.125 31.6591 129.657 21.5556 120.21L4.44971 138.504C24.6568 157.398 56.3549 156.334 75.2496 136.127L80.3813 130.639C85.105 125.587 84.839 117.663 79.7872 112.939C74.7354 108.215 66.8109 108.481 62.0873 113.533Z" fill="#B144E4"/>
<path d="M80.3805 130.639L75.2487 136.127C65.8014 146.231 66.3334 162.08 76.4369 171.527L59.3311 189.821C39.124 170.927 38.06 139.229 56.9546 119.021L62.0864 113.533C66.81 108.481 74.7346 108.215 79.7864 112.939C84.8381 117.663 85.1041 125.587 80.3805 130.639Z" fill="#FB61A2"/>
<path d="M20.7567 265.073L25.8885 259.585C35.3358 249.481 34.8038 233.632 24.7003 224.185L41.8062 205.891C62.0132 224.785 63.0772 256.484 44.1826 276.691L39.0508 282.179C34.3272 287.231 26.4026 287.497 21.3509 282.773C16.2991 278.049 16.0331 270.125 20.7567 265.073Z" fill="#B144E4"/>
<path d="M39.048 282.182L44.1798 276.694C53.6271 266.59 69.4762 266.058 79.5797 275.505L96.6855 257.211C76.4785 238.317 44.7803 239.381 25.8857 259.588L20.7539 265.076C16.0303 270.128 16.2963 278.052 21.348 282.776C26.3998 287.5 34.3244 287.234 39.048 282.182Z" fill="#17ECDF"/>
<path d="M-17.8832 233.057L-23.015 238.545C-32.4623 248.649 -31.9303 264.498 -21.8268 273.945L-38.9326 292.239C-59.1397 273.345 -60.2036 241.646 -41.309 221.439L-36.1773 215.951C-31.4536 210.899 -23.5291 210.633 -18.4773 215.357C-13.4256 220.081 -13.1596 228.005 -17.8832 233.057Z" fill="#12BBF0"/>
<path d="M9.25577 60.0203L14.3875 54.5321C23.8348 44.4285 23.3029 28.5794 13.1993 19.1321L30.3052 0.838074C50.5122 19.7327 51.5762 51.4309 32.6816 71.6379L27.5498 77.1261C22.8262 82.1779 14.9016 82.4439 9.84987 77.7202C4.79811 72.9966 4.53212 65.0721 9.25577 60.0203Z" fill="#B144E4"/>
<path d="M27.5509 77.1255L32.6827 71.6373C42.13 61.5338 57.9791 61.0018 68.0826 70.4491L85.1885 52.155C64.9814 33.2604 33.2832 34.3244 14.3886 54.5315L9.25687 60.0197C4.53322 65.0714 4.79921 72.996 9.85098 77.7196C14.9027 82.4433 22.8273 82.1773 27.5509 77.1255Z" fill="#FFE100"/>
</svg>
