<svg width="103" height="103" viewBox="0 0 103 103" fill="none" xmlns="http://www.w3.org/2000/svg">
<path d="M57.6375 26.2559L52.5058 31.7442C43.0585 41.8477 27.2094 42.3797 17.1059 32.9324L0 51.2264C20.2071 70.121 51.9052 69.0571 70.7998 48.85L75.9316 43.3618C80.6553 38.31 80.3893 30.3855 75.3375 25.6618C70.2857 20.9382 62.3612 21.2042 57.6375 26.2559Z" fill="#B144E4"/>
<path d="M75.9337 43.3581L70.8019 48.8463C61.3546 58.9498 61.8866 74.7989 71.9901 84.2462L54.8843 102.54C34.6772 83.6457 33.6133 51.9475 52.5079 31.7404L57.6396 26.2522C62.3633 21.2004 70.2878 20.9345 75.3396 25.6581C80.3913 30.3818 80.6573 38.3063 75.9337 43.3581Z" fill="#FB61A2"/>
</svg>
