<svg width="184" height="183" viewBox="0 0 184 183" fill="none" xmlns="http://www.w3.org/2000/svg">
<path d="M110.374 106.451L115.318 101.164C124.42 91.4306 123.907 76.1621 114.174 67.0608L130.653 49.4369C150.12 67.6394 151.145 98.1764 132.942 117.643L127.998 122.93C123.448 127.797 115.814 128.053 110.947 123.503C106.08 118.952 105.824 111.318 110.374 106.451Z" fill="#B144E4"/>
<path d="M127.996 122.933L132.94 117.646C142.041 107.913 157.31 107.4 167.043 116.501L183.522 98.8773C164.056 80.6748 133.519 81.6998 115.316 101.167L110.372 106.454C105.822 111.321 106.078 118.955 110.945 123.505C115.811 128.056 123.446 127.8 127.996 122.933Z" fill="#FFE100"/>
<path d="M55.5262 59.1294L50.5825 64.4166C41.4812 74.15 26.2127 74.6625 16.4793 65.5612L0 83.1852C19.4669 101.388 50.0039 100.363 68.2064 80.8958L73.1502 75.6086C77.7008 70.7419 77.4445 63.1076 72.5778 58.557C67.7111 54.0064 60.0769 54.2627 55.5262 59.1294Z" fill="#B144E4"/>
<path d="M73.1499 75.6086L68.2062 80.8958C59.1049 90.6292 59.6174 105.898 69.3508 114.999L52.8716 132.623C33.4047 114.42 32.3797 83.8834 50.5822 64.4165L55.526 59.1293C60.0766 54.2626 67.7109 54.0064 72.5776 58.557C77.4443 63.1076 77.7006 70.7419 73.1499 75.6086Z" fill="#17ECDF"/>
</svg>
