<svg width="24" height="24" viewBox="0 0 24 24" fill="none" xmlns="http://www.w3.org/2000/svg">
<path d="M7.21433 13.1337L14.0624 8.91452C14.2158 8.82052 14.4122 8.82952 14.5558 8.94052C15.2064 9.44155 15.7877 9.94957 16.1755 10.3766C16.1755 10.3766 16.5096 10.7186 16.6542 10.9356C16.8877 11.2316 17 11.6187 17 11.9947C17 12.4167 16.8769 12.8157 16.6317 13.1347C16.576 13.1917 16.364 13.4427 16.1638 13.6478C14.9954 14.9238 11.9455 17.0319 10.3414 17.671C10.1079 17.774 9.48466 17.989 9.16131 18.001C8.84967 18.001 8.54879 17.933 8.25962 17.784C7.90403 17.579 7.62561 17.2609 7.46931 16.8839C7.36869 16.6219 7.21336 15.8359 7.21336 15.8129C7.11274 15.2518 7.03751 14.4638 7.00039 13.5438C6.99355 13.3787 7.07659 13.2187 7.21433 13.1337Z" fill="#F5FDFF"/>
<path opacity="0.4" d="M7.67252 10.8612C7.37066 11.0482 6.99064 10.8092 7.00529 10.4502C7.04144 9.60816 7.10396 8.86612 7.18016 8.3141C7.19188 8.30209 7.34721 7.32305 7.52598 6.99203C7.83762 6.377 8.44916 6.00098 9.10662 6.00098H9.16132C9.5853 6.01198 10.487 6.388 10.487 6.411C10.9412 6.60001 11.5342 6.92003 12.1721 7.30504C12.4594 7.47905 12.4662 7.90607 12.179 8.08308L7.67252 10.8612Z" fill="#F5FDFF"/>
</svg>
