<svg width="75" height="75" viewBox="0 0 75 75" fill="none" xmlns="http://www.w3.org/2000/svg">
<path d="M19.3979 42.7607L23.1058 38.7954C29.9317 31.4953 29.5473 20.0439 22.2472 13.218L34.6067 0C49.2068 13.6519 49.9756 36.5546 36.3237 51.1548L32.6159 55.1202C29.2029 58.7702 23.4772 58.9624 19.8272 55.5494C16.1772 52.1365 15.985 46.4108 19.3979 42.7607Z" fill="#B144E4"/>
<path d="M32.6156 55.12L36.3234 51.1546C43.1493 43.8545 54.6007 43.4702 61.9008 50.2961L74.2603 37.0781C59.6601 23.4263 36.7573 24.195 23.1055 38.7952L19.3976 42.7605C15.9847 46.4106 16.1768 52.1363 19.8269 55.5492C23.4769 58.9622 29.2026 58.77 32.6156 55.12Z" fill="#12BBF0"/>
</svg>
