<svg width="47" height="27" viewBox="0 0 47 27" fill="none" xmlns="http://www.w3.org/2000/svg">
<path fill-rule="evenodd" clip-rule="evenodd" d="M19.0335 2.07692C17.0775 0.692301 14.6952 0 11.8866 0C8.9776 0 6.57022 0.710519 4.66434 2.13158C2.75847 3.55264 1.80555 5.3927 1.80555 7.65182C1.80555 10.4211 3.31017 12.5344 6.31944 13.9919L0 27H9.78008L19.2592 13.7733C20.162 12.5344 20.8391 11.4777 21.2905 10.6032C21.7419 9.72874 21.9676 8.74494 21.9676 7.65182C21.9676 5.31983 20.9896 3.46155 19.0335 2.07692ZM43.747 2.07692C41.791 0.692301 39.4087 0 36.6001 0C33.6911 0 31.2837 0.710519 29.3778 2.13158C27.472 3.55264 26.5191 5.3927 26.5191 7.65182C26.5191 10.4211 28.0237 12.5344 31.0329 13.9919L24.7135 27H34.4936L43.9727 13.7733C44.8755 12.5344 45.5526 11.4777 46.004 10.6032C46.4554 9.72874 46.6811 8.74494 46.6811 7.65182C46.6811 5.31983 45.7031 3.46155 43.747 2.07692Z" fill="#A4E5F9"/>
</svg>
