<svg width="105" height="124" viewBox="0 0 105 124" fill="none" xmlns="http://www.w3.org/2000/svg">
<path d="M47.8912 79.232L42.5654 78.1794C32.7608 76.2417 26.3835 66.7228 28.3212 56.9182L10.5684 53.4097C6.693 73.0188 19.4477 92.0568 39.0569 95.9322L44.3827 96.9848C49.285 97.9536 54.0445 94.7649 55.0134 89.8626C55.9822 84.9603 52.7935 80.2008 47.8912 79.232Z" fill="#B144E4"/>
<path d="M44.3857 96.9853L39.0599 95.9327C29.2553 93.995 19.7363 100.372 17.7986 110.177L0.0458374 106.668C3.92122 87.0593 22.9592 74.3046 42.5684 78.1799L47.8942 79.2325C52.7965 80.2013 55.9852 84.9608 55.0163 89.8631C54.0475 94.7654 49.288 97.9541 44.3857 96.9853Z" fill="#12BBF0"/>
<path d="M60.5473 26.3956L65.8731 27.4482C75.6777 29.3858 85.1967 23.0085 87.1344 13.2039L104.887 16.7124C101.012 36.3216 81.9738 49.0763 62.3646 45.2009L57.0388 44.1484C52.1365 43.1795 48.9478 38.42 49.9166 33.5177C50.8855 28.6154 55.645 25.4268 60.5473 26.3956Z" fill="#B144E4"/>
<path d="M57.0391 44.1474L62.365 45.2C72.1695 47.1376 78.5469 56.6566 76.6092 66.4612L94.362 69.9697C98.2374 50.3606 85.4826 31.3226 65.8735 27.4472L60.5476 26.3946C55.6453 25.4258 50.8858 28.6145 49.917 33.5168C48.9482 38.4191 52.1368 43.1786 57.0391 44.1474Z" fill="#FFC148"/>
</svg>
