<svg width="105" height="110" viewBox="0 0 105 110" fill="none" xmlns="http://www.w3.org/2000/svg">
<path d="M47.8484 72.3437L42.5225 71.2911C32.718 69.3534 26.3406 59.8344 28.2783 50.0299L10.5255 46.5214C6.65013 66.1305 19.4049 85.1685 39.014 89.0439L44.3399 90.0964C49.2421 91.0653 54.0016 87.8766 54.9705 82.9743C55.9393 78.072 52.7506 73.3125 47.8484 72.3437Z" fill="#B144E4"/>
<path d="M44.3428 90.0969L39.017 89.0444C29.2124 87.1067 19.6934 93.4841 17.7557 103.289L0.00292969 99.7802C3.87832 80.171 22.9163 67.4162 42.5255 71.2916L47.8513 72.3442C52.7536 73.313 55.9423 78.0725 54.9734 82.9748C54.0046 87.8771 49.2451 91.0658 44.3428 90.0969Z" fill="#12BBF0"/>
<path d="M60.5045 19.5071L65.8303 20.5596C75.6349 22.4973 85.1539 16.1199 87.0916 6.31535L104.844 9.82385C100.969 29.433 81.931 42.1878 62.3218 38.3124L56.996 37.2598C52.0937 36.291 48.905 31.5315 49.8739 26.6292C50.8427 21.7269 55.6022 18.5382 60.5045 19.5071Z" fill="#B144E4"/>
<path d="M56.9964 37.259L62.3222 38.3115C72.1268 40.2492 78.5041 49.7682 76.5665 59.5728L94.3192 63.0813C98.1946 43.4721 85.4399 24.4342 65.8307 20.5588L60.5049 19.5062C55.6026 18.5374 50.8431 21.726 49.8742 26.6283C48.9054 31.5306 52.0941 36.2901 56.9964 37.259Z" fill="#FFC148"/>
</svg>
