<svg width="315" height="296" viewBox="0 0 315 296" fill="none" xmlns="http://www.w3.org/2000/svg">
<path d="M207.876 277.12L204.168 273.154C197.342 265.854 185.891 265.47 178.591 272.296L166.231 259.078C180.832 245.426 203.734 246.195 217.386 260.795L221.094 264.76C224.507 268.41 224.315 274.136 220.665 277.549C217.015 280.962 211.289 280.77 207.876 277.12Z" fill="#B144E4"/>
<path d="M221.095 264.763L217.387 260.797C210.562 253.497 210.946 242.046 218.246 235.22L205.887 222.002C191.286 235.654 190.518 258.557 204.169 273.157L207.877 277.122C211.29 280.772 217.016 280.964 220.666 277.551C224.316 274.138 224.508 268.413 221.095 264.763Z" fill="#F469D6"/>
<path d="M136.876 203.12L133.168 199.154C126.342 191.854 114.891 191.47 107.591 198.296L95.2314 185.078C109.832 171.426 132.734 172.195 146.386 186.795L150.094 190.76C153.507 194.41 153.315 200.136 149.665 203.549C146.015 206.962 140.289 206.77 136.876 203.12Z" fill="#B144E4"/>
<path d="M150.095 190.763L146.387 186.797C139.562 179.497 139.946 168.046 147.246 161.22L134.887 148.002C120.286 161.654 119.518 184.557 133.169 199.157L136.877 203.122C140.29 206.772 146.016 206.964 149.666 203.551C153.316 200.138 153.508 194.413 150.095 190.763Z" fill="#12BBF0"/>
<path d="M290.876 55.1196L287.168 51.1543C280.342 43.8542 268.891 43.4698 261.591 50.2957L249.231 37.0778C263.832 23.4259 286.734 24.1947 300.386 38.7948L304.094 42.7602C307.507 46.4102 307.315 52.1359 303.665 55.5489C300.015 58.9619 294.289 58.7697 290.876 55.1196Z" fill="#B144E4"/>
<path d="M304.095 42.7627L300.387 38.7973C293.562 31.4972 293.946 20.0458 301.246 13.2199L288.887 0.00195312C274.286 13.6538 273.518 36.5566 287.169 51.1568L290.877 55.1221C294.29 58.7722 300.016 58.9644 303.666 55.5514C307.316 52.1384 307.508 46.4127 304.095 42.7627Z" fill="#12BBF0"/>
<path d="M182.922 303.426L186.63 307.391C193.456 314.691 204.907 315.075 212.207 308.249L224.567 321.467C209.967 335.119 187.064 334.351 173.412 319.75L169.704 315.785C166.291 312.135 166.483 306.409 170.134 302.996C173.784 299.583 179.509 299.776 182.922 303.426Z" fill="#12BBF0"/>
<path d="M98.7055 241.786L102.413 245.752C109.239 253.052 108.855 264.503 101.555 271.329L113.914 284.547C128.514 270.895 129.283 247.992 115.631 233.392L111.923 229.427C108.511 225.777 102.785 225.585 99.1348 228.998C95.4847 232.411 95.2926 238.136 98.7055 241.786Z" fill="#B144E4"/>
<path d="M111.922 229.426L115.63 233.391C122.456 240.691 133.907 241.075 141.207 234.249L153.567 247.467C138.967 261.119 116.064 260.351 102.412 245.75L98.7043 241.785C95.2913 238.135 95.4835 232.409 99.1335 228.996C102.784 225.583 108.509 225.776 111.922 229.426Z" fill="#12BBF0"/>
<path d="M57.5686 277.278L53.8607 273.312C47.0348 266.012 35.5834 265.628 28.2833 272.454L15.9239 259.236C30.524 245.584 53.4268 246.353 67.0787 260.953L70.7865 264.918C74.1995 268.568 74.0073 274.294 70.3573 277.707C66.7072 281.12 60.9815 280.928 57.5686 277.278Z" fill="#B144E4"/>
<path d="M70.7863 264.919L67.0785 260.953C60.2526 253.653 60.637 242.202 67.937 235.376L55.5776 222.158C40.9774 235.81 40.2087 258.713 53.8606 273.313L57.5684 277.278C60.9814 280.928 66.7071 281.12 70.3571 277.707C74.0071 274.294 74.1993 268.569 70.7863 264.919Z" fill="#FFE100"/>
<path d="M323.706 167.786L327.413 171.752C334.239 179.052 333.855 190.503 326.555 197.329L338.914 210.547C353.514 196.895 354.283 173.992 340.631 159.392L336.923 155.427C333.511 151.777 327.785 151.585 324.135 154.998C320.485 158.411 320.293 164.136 323.706 167.786Z" fill="#B144E4"/>
<path d="M282.569 203.278L278.861 199.312C272.035 192.012 260.583 191.628 253.283 198.454L240.924 185.236C255.524 171.584 278.427 172.353 292.079 186.953L295.787 190.918C299.199 194.568 299.007 200.294 295.357 203.707C291.707 207.12 285.982 206.928 282.569 203.278Z" fill="#B144E4"/>
<path d="M295.786 190.919L292.079 186.953C285.253 179.653 285.637 168.202 292.937 161.376L280.578 148.158C265.977 161.81 265.209 184.713 278.861 199.313L282.568 203.278C285.981 206.928 291.707 207.12 295.357 203.707C299.007 200.294 299.199 194.569 295.786 190.919Z" fill="#F469D6"/>
<path d="M252.706 93.7864L256.413 97.7518C263.239 105.052 262.855 116.503 255.555 123.329L267.914 136.547C282.514 122.895 283.283 99.9925 269.631 85.3923L265.923 81.4269C262.511 77.7769 256.785 77.5847 253.135 80.9977C249.485 84.4106 249.293 90.1363 252.706 93.7864Z" fill="#B144E4"/>
<path d="M265.922 81.4256L269.63 85.391C276.456 92.691 287.907 93.0754 295.207 86.2495L307.567 99.4674C292.967 113.119 270.064 112.351 256.412 97.7504L252.704 93.785C249.291 90.135 249.483 84.4093 253.134 80.9963C256.784 77.5834 262.509 77.7755 265.922 81.4256Z" fill="#12BBF0"/>
<path d="M211.569 129.278L207.861 125.312C201.035 118.012 189.583 117.628 182.283 124.454L169.924 111.236C184.524 97.584 207.427 98.3527 221.079 112.953L224.787 116.918C228.199 120.568 228.007 126.294 224.357 129.707C220.707 133.12 214.982 132.928 211.569 129.278Z" fill="#B144E4"/>
<path d="M224.786 116.919L221.079 112.953C214.253 105.653 214.637 94.2019 221.937 87.3759L209.578 74.158C194.977 87.8099 194.209 110.713 207.861 125.313L211.568 129.278C214.981 132.928 220.707 133.12 224.357 129.707C228.007 126.294 228.199 120.569 224.786 116.919Z" fill="#FFE100"/>
<path d="M32.6154 303.584L36.3232 307.549C43.1491 314.849 54.6005 315.233 61.9006 308.408L74.26 321.625C59.6599 335.277 36.7571 334.509 23.1052 319.908L19.3974 315.943C15.9844 312.293 16.1766 306.567 19.8267 303.154C23.4767 299.741 29.2024 299.934 32.6154 303.584Z" fill="#12BBF0"/>
<path d="M244.398 241.943L248.106 245.908C254.931 253.208 254.547 264.66 247.247 271.485L259.606 284.703C274.207 271.052 274.975 248.149 261.323 233.549L257.616 229.583C254.203 225.933 248.477 225.741 244.827 229.154C241.177 232.567 240.985 238.293 244.398 241.943Z" fill="#B144E4"/>
<path d="M257.615 229.584L261.323 233.549C268.149 240.849 279.601 241.233 286.901 234.408L299.26 247.625C284.66 261.277 261.757 260.509 248.105 245.908L244.397 241.943C240.984 238.293 241.177 232.567 244.827 229.154C248.477 225.741 254.202 225.934 257.615 229.584Z" fill="#FFC148"/>
<path d="M173.398 167.943L177.106 171.908C183.931 179.208 183.547 190.66 176.247 197.485L188.606 210.703C203.207 197.052 203.975 174.149 190.323 159.549L186.616 155.583C183.203 151.933 177.477 151.741 173.827 155.154C170.177 158.567 169.985 164.293 173.398 167.943Z" fill="#B144E4"/>
<path d="M186.615 155.584L190.323 159.549C197.149 166.849 208.601 167.233 215.901 160.408L228.26 173.625C213.66 187.277 190.757 186.509 177.105 171.908L173.397 167.943C169.984 164.293 170.177 158.567 173.827 155.154C177.477 151.741 183.202 151.934 186.615 155.584Z" fill="#17ECDF"/>
</svg>
