<svg width="105" height="110" viewBox="0 0 105 110" fill="none" xmlns="http://www.w3.org/2000/svg">
<path d="M47.8482 72.3433L42.5224 71.2908C32.7178 69.3531 26.3405 59.8341 28.2782 50.0295L10.5254 46.521C6.65 66.1302 19.4047 85.1681 39.0139 89.0435L44.3397 90.0961C49.242 91.0649 54.0015 87.8762 54.9704 82.974C55.9392 78.0717 52.7505 73.3122 47.8482 72.3433Z" fill="#B144E4"/>
<path d="M44.3427 90.0966L39.0168 89.044C29.2123 87.1063 19.6933 93.4837 17.7556 103.288L0.00280762 99.7798C3.87819 80.1706 22.9162 67.4159 42.5253 71.2913L47.8512 72.3438C52.7535 73.3127 55.9421 78.0722 54.9733 82.9745C54.0045 87.8767 49.245 91.0654 44.3427 90.0966Z" fill="#12BBF0"/>
<path d="M60.5044 19.5069L65.8302 20.5595C75.6348 22.4972 85.1538 16.1198 87.0915 6.31523L104.844 9.82373C100.969 29.4329 81.9309 42.1876 62.3217 38.3122L56.9959 37.2597C52.0936 36.2909 48.9049 31.5314 49.8737 26.6291C50.8426 21.7268 55.6021 18.5381 60.5044 19.5069Z" fill="#B144E4"/>
<path d="M56.9962 37.2587L62.3221 38.3113C72.1266 40.249 78.504 49.768 76.5663 59.5725L94.3191 63.0811C98.1945 43.4719 85.4397 24.4339 65.8306 20.5585L60.5048 19.506C55.6025 18.5371 50.843 21.7258 49.8741 26.6281C48.9053 31.5304 52.094 36.2899 56.9962 37.2587Z" fill="#FFC148"/>
</svg>
