<svg width="229" height="319" viewBox="0 0 229 319" fill="none" xmlns="http://www.w3.org/2000/svg">
<path d="M20.6169 277.119L24.3248 273.154C31.1507 265.854 42.6021 265.469 49.9022 272.295L62.2616 259.077C47.6614 245.426 24.7587 246.194 11.1068 260.794L7.39897 264.76C3.986 268.41 4.17819 274.136 7.82822 277.549C11.4783 280.961 17.204 280.769 20.6169 277.119Z" fill="#B144E4"/>
<path d="M7.39769 264.762L11.1055 260.797C17.9314 253.497 17.5471 242.046 10.247 235.22L22.6064 222.002C37.2066 235.654 37.9753 258.556 24.3235 273.157L20.6156 277.122C17.2027 280.772 11.477 280.964 7.82694 277.551C4.17691 274.138 3.98472 268.412 7.39769 264.762Z" fill="#F469D6"/>
<path d="M91.6169 203.119L95.3248 199.154C102.151 191.854 113.602 191.469 120.902 198.295L133.262 185.077C118.661 171.426 95.7587 172.194 82.1068 186.794L78.399 190.76C74.986 194.41 75.1782 200.136 78.8282 203.549C82.4783 206.961 88.204 206.769 91.6169 203.119Z" fill="#B144E4"/>
<path d="M78.3977 190.762L82.1055 186.797C88.9314 179.497 88.5471 168.046 81.247 161.22L93.6064 148.002C108.207 161.654 108.975 184.556 95.3235 199.157L91.6156 203.122C88.2027 206.772 82.477 206.964 78.8269 203.551C75.1769 200.138 74.9847 194.412 78.3977 190.762Z" fill="#12BBF0"/>
<path d="M58.7875 315.786L55.0797 319.752C48.2537 327.052 48.6381 338.503 55.9382 345.329L43.5787 358.547C28.9786 344.895 28.2098 321.992 41.8617 307.392L45.5695 303.427C48.9825 299.777 54.7082 299.584 58.3582 302.997C62.0083 306.41 62.2005 312.136 58.7875 315.786Z" fill="#B144E4"/>
<path d="M45.5707 303.425L41.8629 307.391C35.0369 314.691 23.5855 315.075 16.2855 308.249L3.92603 321.467C18.5262 335.119 41.429 334.35 55.0808 319.75L58.7887 315.785C62.2016 312.135 62.0094 306.409 58.3594 302.996C54.7094 299.583 48.9837 299.775 45.5707 303.425Z" fill="#12BBF0"/>
<path d="M99.9244 351.277L103.632 347.312C110.458 340.012 121.91 339.628 129.21 346.454L141.569 333.236C126.969 319.584 104.066 320.352 90.4143 334.953L86.7065 338.918C83.2935 342.568 83.4857 348.294 87.1357 351.707C90.7858 355.12 96.5115 354.927 99.9244 351.277Z" fill="#B144E4"/>
<path d="M86.7066 338.918L90.4145 334.953C97.2404 327.653 96.856 316.202 89.556 309.376L101.915 296.158C116.516 309.81 117.284 332.712 103.632 347.313L99.9246 351.278C96.5116 354.928 90.7859 355.12 87.1359 351.707C83.4859 348.294 83.2937 342.568 86.7066 338.918Z" fill="#12BBF0"/>
<path d="M129.787 241.786L126.08 245.752C119.254 253.052 119.638 264.503 126.938 271.329L114.579 284.547C99.9786 270.895 99.2098 247.992 112.862 233.392L116.57 229.427C119.983 225.777 125.708 225.584 129.358 228.997C133.008 232.41 133.2 238.136 129.787 241.786Z" fill="#B144E4"/>
<path d="M116.571 229.425L112.863 233.391C106.037 240.691 94.5855 241.075 87.2855 234.249L74.926 247.467C89.5262 261.119 112.429 260.35 126.081 245.75L129.789 241.785C133.202 238.135 133.009 232.409 129.359 228.996C125.709 225.583 119.984 225.775 116.571 229.425Z" fill="#12BBF0"/>
<path d="M170.924 277.277L174.632 273.312C181.458 266.012 192.91 265.628 200.21 272.454L212.569 259.236C197.969 245.584 175.066 246.352 161.414 260.953L157.706 264.918C154.293 268.568 154.486 274.294 158.136 277.707C161.786 281.12 167.511 280.927 170.924 277.277Z" fill="#B144E4"/>
<path d="M157.707 264.918L161.414 260.953C168.24 253.653 167.856 242.202 160.556 235.376L172.915 222.158C187.516 235.81 188.284 258.712 174.632 273.313L170.925 277.278C167.512 280.928 161.786 281.12 158.136 277.707C154.486 274.294 154.294 268.568 157.707 264.918Z" fill="#FFE100"/>
<path d="M16.9244 129.277L20.6322 125.312C27.4582 118.012 38.9096 117.628 46.2096 124.454L58.5691 111.236C43.9689 97.5837 21.0662 98.3525 7.41429 112.953L3.70647 116.918C0.293499 120.568 0.485681 126.294 4.13572 129.707C7.78576 133.12 13.5115 132.927 16.9244 129.277Z" fill="#B144E4"/>
<path d="M3.70665 116.918L7.41448 112.953C14.2404 105.653 13.856 94.2016 6.55596 87.3757L18.9154 74.1577C33.5156 87.8096 34.2843 110.712 20.6324 125.313L16.9246 129.278C13.5116 132.928 7.78594 133.12 4.1359 129.707C0.485868 126.294 0.293682 120.568 3.70665 116.918Z" fill="#FFE100"/>
<path d="M209.095 315.942L205.387 319.908C198.561 327.208 198.946 338.659 206.246 345.485L193.886 358.703C179.286 345.051 178.518 322.148 192.169 307.548L195.877 303.583C199.29 299.933 205.016 299.741 208.666 303.154C212.316 306.567 212.508 312.292 209.095 315.942Z" fill="#B144E4"/>
<path d="M195.878 303.583L192.17 307.549C185.344 314.849 173.892 315.233 166.592 308.407L154.233 321.625C168.833 335.277 191.736 334.508 205.388 319.908L209.096 315.943C212.509 312.293 212.316 306.567 208.666 303.154C205.016 299.741 199.291 299.933 195.878 303.583Z" fill="#12BBF0"/>
<path d="M-15.9048 241.942L-19.6126 245.908C-26.4385 253.208 -26.0542 264.659 -18.7541 271.485L-31.1135 284.703C-45.7137 271.051 -46.4824 248.148 -32.8306 233.548L-29.1227 229.583C-25.7098 225.933 -19.9841 225.741 -16.334 229.154C-12.684 232.567 -12.4918 238.292 -15.9048 241.942Z" fill="#B144E4"/>
<path d="M55.0952 167.942L51.3874 171.908C44.5615 179.208 44.9458 190.659 52.2459 197.485L39.8865 210.703C25.2863 197.051 24.5176 174.148 38.1694 159.548L41.8773 155.583C45.2902 151.933 51.0159 151.741 54.666 155.154C58.316 158.567 58.5082 164.292 55.0952 167.942Z" fill="#B144E4"/>
<path d="M41.8776 155.583L38.1698 159.549C31.3438 166.849 19.8924 167.233 12.5924 160.407L0.23291 173.625C14.8331 187.277 37.7358 186.508 51.3877 171.908L55.0955 167.943C58.5085 164.293 58.3163 158.567 54.6663 155.154C51.0162 151.741 45.2905 151.933 41.8776 155.583Z" fill="#17ECDF"/>
</svg>
