<svg width="154" height="174" viewBox="0 0 154 174" fill="none" xmlns="http://www.w3.org/2000/svg">
<path d="M120.952 118.506L117.244 122.471C110.418 129.771 98.9671 130.155 91.667 123.329L79.3076 136.547C93.9077 150.199 116.81 149.43 130.462 134.83L134.17 130.865C137.583 127.215 137.391 121.489 133.741 118.076C130.091 114.663 124.365 114.855 120.952 118.506Z" fill="#B144E4"/>
<path d="M134.171 130.862L130.464 134.828C123.638 142.128 124.022 153.579 131.322 160.405L118.963 173.623C104.362 159.971 103.594 137.068 117.246 122.468L120.953 118.503C124.366 114.853 130.092 114.661 133.742 118.074C137.392 121.487 137.584 127.212 134.171 130.862Z" fill="#12BBF0"/>
<path d="M82.7817 79.8389L86.4895 75.8735C93.3154 68.5734 92.9311 57.122 85.631 50.2961L97.9904 37.0781C112.591 50.73 113.359 73.6328 99.7074 88.2329L95.9996 92.1983C92.5867 95.8483 86.861 96.0405 83.2109 92.6276C79.5609 89.2146 79.3687 83.4889 82.7817 79.8389Z" fill="#B144E4"/>
<path d="M95.9984 92.1996L99.7062 88.2342C106.532 80.9341 117.984 80.5497 125.284 87.3757L137.643 74.1577C123.043 60.5059 100.14 61.2746 86.4882 75.8747L82.7804 79.8401C79.3674 83.4902 79.5596 89.2159 83.2097 92.6288C86.8597 96.0418 92.5854 95.8496 95.9984 92.1996Z" fill="#12BBF0"/>
<path d="M41.6447 44.3473L37.9368 48.3127C31.1109 55.6128 19.6595 55.9971 12.3594 49.1712L0 62.3892C14.6002 76.041 37.5029 75.2723 51.1548 60.6721L54.8626 56.7068C58.2756 53.0567 58.0834 47.331 54.4334 43.918C50.7833 40.5051 45.0576 40.6973 41.6447 44.3473Z" fill="#B144E4"/>
<path d="M54.8625 56.7065L51.1547 60.6719C44.3287 67.972 44.7131 79.4234 52.0132 86.2493L39.6537 99.4673C25.0536 85.8154 24.2849 62.9126 37.9367 48.3125L41.6445 44.3471C45.0575 40.6971 50.7832 40.5049 54.4332 43.9178C58.0833 47.3308 58.2755 53.0565 54.8625 56.7065Z" fill="#12BBF0"/>
</svg>
