<svg width="230" height="339" viewBox="0 0 230 339" fill="none" xmlns="http://www.w3.org/2000/svg">
<path d="M42.876 155.584L39.1682 159.549C32.3422 166.849 20.8908 167.234 13.5908 160.408L1.23132 173.626C15.8315 187.278 38.7343 186.509 52.3861 171.909L56.0939 167.943C59.5069 164.293 59.3147 158.568 55.6647 155.155C52.0147 151.742 46.289 151.934 42.876 155.584Z" fill="#B144E4"/>
<path d="M56.0952 167.941L52.3874 171.906C45.5615 179.206 45.9458 190.658 53.2459 197.484L40.8865 210.702C26.2863 197.05 25.5176 174.147 39.1694 159.547L42.8773 155.581C46.2902 151.931 52.0159 151.739 55.666 155.152C59.316 158.565 59.5082 164.291 56.0952 167.941Z" fill="#FB61A2"/>
<path d="M-14.9048 241.941L-18.6126 245.906C-25.4385 253.206 -25.0542 264.658 -17.7541 271.484L-30.1135 284.702C-44.7137 271.05 -45.4824 248.147 -31.8306 233.547L-28.1227 229.581C-24.7098 225.931 -18.9841 225.739 -15.334 229.152C-11.684 232.565 -11.4918 238.291 -14.9048 241.941Z" fill="#12BBF0"/>
<path d="M196.876 303.584L193.168 307.549C186.342 314.849 174.891 315.234 167.591 308.408L155.231 321.626C169.831 335.278 192.734 334.509 206.386 319.909L210.094 315.943C213.507 312.293 213.315 306.568 209.665 303.155C206.015 299.742 200.289 299.934 196.876 303.584Z" fill="#B144E4"/>
<path d="M210.095 315.941L206.387 319.906C199.561 327.206 199.946 338.658 207.246 345.484L194.886 358.702C180.286 345.05 179.518 322.147 193.169 307.547L196.877 303.581C200.29 299.931 206.016 299.739 209.666 303.152C213.316 306.565 213.508 312.291 210.095 315.941Z" fill="#FB61A2"/>
<path d="M4.70543 116.917L8.41326 112.952C15.2392 105.652 14.8548 94.2003 7.55474 87.3743L19.9142 74.1564C34.5143 87.8082 35.2831 110.711 21.6312 125.311L17.9234 129.277C14.5104 132.927 8.78472 133.119 5.13468 129.706C1.48465 126.293 1.29246 120.567 4.70543 116.917Z" fill="#B144E4"/>
<path d="M17.9222 129.278L21.6301 125.313C28.456 118.012 39.9074 117.628 47.2075 124.454L59.5669 111.236C44.9667 97.5842 22.064 98.353 8.4121 112.953L4.70427 116.918C1.2913 120.569 1.48348 126.294 5.13352 129.707C8.78356 133.12 14.5093 132.928 17.9222 129.278Z" fill="#FFE100"/>
<path d="M158.705 264.917L162.413 260.952C169.239 253.652 168.855 242.2 161.555 235.374L173.914 222.156C188.514 235.808 189.283 258.711 175.631 273.311L171.923 277.277C168.51 280.927 162.785 281.119 159.135 277.706C155.485 274.293 155.292 268.567 158.705 264.917Z" fill="#B144E4"/>
<path d="M171.922 277.278L175.63 273.313C182.456 266.012 193.907 265.628 201.207 272.454L213.567 259.236C198.967 245.584 176.064 246.353 162.412 260.953L158.704 264.918C155.291 268.569 155.483 274.294 159.134 277.707C162.784 281.12 168.509 280.928 171.922 277.278Z" fill="#FFE100"/>
<path d="M117.568 229.426L113.861 233.391C107.035 240.691 95.5833 241.076 88.2833 234.25L75.9238 247.468C90.524 261.12 113.427 260.351 127.079 245.751L130.786 241.785C134.199 238.135 134.007 232.41 130.357 228.997C126.707 225.584 120.981 225.776 117.568 229.426Z" fill="#B144E4"/>
<path d="M130.786 241.785L127.078 245.75C120.253 253.05 120.637 264.502 127.937 271.328L115.578 284.546C100.977 270.894 100.209 247.991 113.86 233.391L117.568 229.425C120.981 225.775 126.707 225.583 130.357 228.996C134.007 232.409 134.199 238.135 130.786 241.785Z" fill="#FB61A2"/>
<path d="M87.7054 338.917L91.4133 334.952C98.2392 327.652 97.8548 316.2 90.5547 309.374L102.914 296.156C117.514 309.808 118.283 332.711 104.631 347.311L100.923 351.277C97.5104 354.927 91.7847 355.119 88.1347 351.706C84.4846 348.293 84.2925 342.567 87.7054 338.917Z" fill="#B144E4"/>
<path d="M100.922 351.278L104.63 347.313C111.456 340.012 122.907 339.628 130.207 346.454L142.567 333.236C127.967 319.584 105.064 320.353 91.4121 334.953L87.7043 338.918C84.2913 342.569 84.4835 348.294 88.1335 351.707C91.7836 355.12 97.5093 354.928 100.922 351.278Z" fill="#17ECDF"/>
<path d="M46.5685 303.426L42.8607 307.391C36.0347 314.691 24.5833 315.076 17.2833 308.25L4.92383 321.468C19.524 335.12 42.4268 334.351 56.0786 319.751L59.7865 315.785C63.1994 312.135 63.0072 306.41 59.3572 302.997C55.7072 299.584 49.9815 299.776 46.5685 303.426Z" fill="#B144E4"/>
<path d="M59.7863 315.785L56.0784 319.75C49.2525 327.05 49.6369 338.502 56.937 345.328L44.5775 358.546C29.9774 344.894 29.2086 321.991 42.8605 307.391L46.5683 303.425C49.9813 299.775 55.707 299.583 59.357 302.996C63.0071 306.409 63.1992 312.135 59.7863 315.785Z" fill="#12BBF0"/>
<path d="M79.3977 190.761L83.1055 186.795C89.9314 179.495 89.5471 168.044 82.247 161.218L94.6064 148C109.207 161.652 109.975 184.555 96.3235 199.155L92.6156 203.12C89.2027 206.77 83.477 206.962 79.8269 203.549C76.1769 200.136 75.9847 194.411 79.3977 190.761Z" fill="#B144E4"/>
<path d="M92.6153 203.12L96.3232 199.154C103.149 191.854 114.6 191.47 121.901 198.296L134.26 185.078C119.66 171.426 96.7571 172.195 83.1052 186.795L79.3974 190.76C75.9844 194.41 76.1766 200.136 79.8266 203.549C83.4767 206.962 89.2024 206.77 92.6153 203.12Z" fill="#FFE100"/>
<path d="M8.39769 264.761L12.1055 260.795C18.9314 253.495 18.5471 242.044 11.247 235.218L23.6064 222C38.2066 235.652 38.9753 258.555 25.3235 273.155L21.6156 277.12C18.2027 280.77 12.477 280.962 8.82694 277.549C5.17691 274.136 4.98472 268.411 8.39769 264.761Z" fill="#B144E4"/>
<path d="M21.6153 277.12L25.3232 273.154C32.1491 265.854 43.6005 265.47 50.9006 272.296L63.26 259.078C48.6599 245.426 25.7571 246.195 12.1052 260.795L8.39738 264.76C4.98442 268.41 5.1766 274.136 8.82664 277.549C12.4767 280.962 18.2024 280.77 21.6153 277.12Z" fill="#17ECDF"/>
</svg>
