<svg width="154" height="149" viewBox="0 0 154 149" fill="none" xmlns="http://www.w3.org/2000/svg">
<path d="M54.8632 116.917L51.1553 112.952C44.3294 105.652 44.7138 94.2006 52.0139 87.3747L39.6544 74.1567C25.0543 87.8086 24.2855 110.711 37.9374 125.312L41.6452 129.277C45.0582 132.927 50.7839 133.119 54.4339 129.706C58.084 126.293 58.2761 120.568 54.8632 116.917Z" fill="#B144E4"/>
<path d="M41.6447 129.277L37.9368 125.311C31.1109 118.011 19.6595 117.627 12.3594 124.453L0 111.235C14.6002 97.583 37.5029 98.3517 51.1548 112.952L54.8626 116.917C58.2756 120.567 58.0834 126.293 54.4334 129.706C50.7833 133.119 45.0576 132.927 41.6447 129.277Z" fill="#12BBF0"/>
<path d="M95.9993 81.4259L99.7071 85.3913C106.533 92.6914 117.984 93.0757 125.284 86.2498L137.644 99.4678C123.044 113.12 100.141 112.351 86.4891 97.7507L82.7813 93.7854C79.3683 90.1353 79.5605 84.4096 83.2105 80.9967C86.8606 77.5837 92.5863 77.7759 95.9993 81.4259Z" fill="#B144E4"/>
<path d="M82.7822 93.7847L86.49 97.7501C93.316 105.05 92.9316 116.502 85.6315 123.327L97.991 136.545C112.591 122.894 113.36 99.9908 99.708 85.3906L96.0002 81.4252C92.5872 77.7752 86.8615 77.583 83.2115 80.996C79.5614 84.4089 79.3692 90.1346 82.7822 93.7847Z" fill="#FB61A2"/>
<path d="M134.17 42.7607L130.462 38.7954C123.636 31.4953 124.021 20.0439 131.321 13.218L118.961 0C104.361 13.6519 103.592 36.5546 117.244 51.1548L120.952 55.1202C124.365 58.7702 130.091 58.9624 133.741 55.5494C137.391 52.1365 137.583 46.4108 134.17 42.7607Z" fill="#B144E4"/>
<path d="M120.952 55.4584L117.244 51.493C110.419 44.1929 98.9671 43.8085 91.6671 50.6345L79.3076 37.4165C93.9078 23.7646 116.811 24.5334 130.462 39.1335L134.17 43.0989C137.583 46.749 137.391 52.4746 133.741 55.8876C130.091 59.3006 124.365 59.1084 120.952 55.4584Z" fill="#12BBF0"/>
</svg>
