<svg width="105" height="110" viewBox="0 0 105 110" fill="none" xmlns="http://www.w3.org/2000/svg">
<path d="M47.8482 72.3438L42.5224 71.2913C32.7178 69.3536 26.3405 59.8346 28.2782 50.03L10.5254 46.5215C6.65 66.1306 19.4047 85.1686 39.0139 89.044L44.3397 90.0966C49.242 91.0654 54.0015 87.8767 54.9704 82.9744C55.9392 78.0722 52.7505 73.3127 47.8482 72.3438Z" fill="#B144E4"/>
<path d="M44.3428 90.0971L39.017 89.0445C29.2124 87.1068 19.6934 93.4842 17.7557 103.289L0.00292969 99.7803C3.87832 80.1711 22.9163 67.4164 42.5255 71.2918L47.8513 72.3443C52.7536 73.3132 55.9423 78.0726 54.9734 82.9749C54.0046 87.8772 49.2451 91.0659 44.3428 90.0971Z" fill="#12BBF0"/>
<path d="M60.5049 19.5064L65.8307 20.559C75.6353 22.4967 85.1543 16.1193 87.092 6.31474L104.845 9.82324C100.969 29.4324 81.9314 42.1871 62.3222 38.3118L56.9964 37.2592C52.0941 36.2904 48.9054 31.5309 49.8742 26.6286C50.8431 21.7263 55.6026 18.5376 60.5049 19.5064Z" fill="#B144E4"/>
<path d="M56.9965 37.2587L62.3223 38.3113C72.1269 40.249 78.5043 49.768 76.5666 59.5725L94.3193 63.0811C98.1947 43.4719 85.44 24.4339 65.8308 20.5585L60.505 19.506C55.6027 18.5371 50.8432 21.7258 49.8744 26.6281C48.9055 31.5304 52.0942 36.2899 56.9965 37.2587Z" fill="#FFC148"/>
</svg>
