<svg width="154" height="174" viewBox="0 0 154 174" fill="none" xmlns="http://www.w3.org/2000/svg">
<path d="M120.952 118.506L117.244 122.471C110.418 129.771 98.9671 130.155 91.667 123.329L79.3076 136.547C93.9077 150.199 116.811 149.43 130.462 134.83L134.17 130.865C137.583 127.215 137.391 121.489 133.741 118.076C130.091 114.663 124.365 114.855 120.952 118.506Z" fill="#B144E4"/>
<path d="M134.171 130.862L130.464 134.828C123.638 142.128 124.022 153.579 131.322 160.405L118.963 173.623C104.362 159.971 103.594 137.068 117.246 122.468L120.953 118.503C124.366 114.853 130.092 114.661 133.742 118.074C137.392 121.487 137.584 127.212 134.171 130.862Z" fill="#12BBF0"/>
<path d="M82.7816 79.8389L86.4895 75.8735C93.3154 68.5734 92.931 57.122 85.631 50.2961L97.9904 37.0781C112.591 50.73 113.359 73.6328 99.7074 88.2329L95.9996 92.1983C92.5866 95.8483 86.8609 96.0405 83.2109 92.6276C79.5609 89.2146 79.3687 83.4889 82.7816 79.8389Z" fill="#B144E4"/>
<path d="M95.9984 92.1993L99.7062 88.2339C106.532 80.9339 117.984 80.5495 125.284 87.3754L137.643 74.1575C123.043 60.5056 100.14 61.2743 86.4882 75.8745L82.7804 79.8399C79.3674 83.4899 79.5596 89.2156 83.2097 92.6286C86.8597 96.0415 92.5854 95.8494 95.9984 92.1993Z" fill="#FFE100"/>
<path d="M41.6447 44.3473L37.9369 48.3127C31.1109 55.6128 19.6595 55.9971 12.3595 49.1712L3.05176e-05 62.3892C14.6002 76.041 37.503 75.2723 51.1548 60.6721L54.8627 56.7068C58.2756 53.0567 58.0834 47.331 54.4334 43.918C50.7834 40.5051 45.0577 40.6973 41.6447 44.3473Z" fill="#B144E4"/>
<path d="M54.8625 56.7063L51.1546 60.6717C44.3287 67.9718 44.7131 79.4232 52.0132 86.2491L39.6537 99.467C25.0536 85.8152 24.2848 62.9124 37.9367 48.3122L41.6445 44.3469C45.0575 40.6968 50.7832 40.5046 54.4332 43.9176C58.0833 47.3306 58.2754 53.0563 54.8625 56.7063Z" fill="#17ECDF"/>
</svg>
