<svg width="167" height="158" viewBox="0 0 167 158" fill="none" xmlns="http://www.w3.org/2000/svg">
<path d="M134.17 42.7607L130.462 38.7954C123.636 31.4953 124.021 20.0439 131.321 13.218L118.961 0C104.361 13.6519 103.592 36.5546 117.244 51.1548L120.952 55.1202C124.365 58.7702 130.091 58.9624 133.741 55.5494C137.391 52.1365 137.583 46.4108 134.17 42.7607Z" fill="#B144E4"/>
<path d="M54.8634 116.917L51.1555 112.952C44.3296 105.652 44.714 94.2006 52.0141 87.3747L39.6546 74.1567C25.0545 87.8086 24.2857 110.711 37.9376 125.312L41.6454 129.277C45.0584 132.927 50.7841 133.119 54.4341 129.706C58.0841 126.293 58.2763 120.568 54.8634 116.917Z" fill="#B144E4"/>
<path d="M41.6449 129.277L37.9371 125.311C31.1111 118.011 19.6597 117.627 12.3597 124.453L0.000228882 111.235C14.6004 97.583 37.5032 98.3517 51.155 112.952L54.8629 116.917C58.2758 120.567 58.0836 126.293 54.4336 129.706C50.7836 133.119 45.0579 132.927 41.6449 129.277Z" fill="#12BBF0"/>
<path d="M95.9995 81.4259L99.7073 85.3913C106.533 92.6914 117.985 93.0757 125.285 86.2498L137.644 99.4678C123.044 113.12 100.141 112.351 86.4894 97.7507L82.7816 93.7854C79.3686 90.1353 79.5608 84.4096 83.2108 80.9967C86.8609 77.5837 92.5865 77.7759 95.9995 81.4259Z" fill="#B144E4"/>
<path d="M82.7824 93.7847L86.4903 97.7501C93.3162 105.05 92.9318 116.502 85.6318 123.327L97.9912 136.545C112.591 122.894 113.36 99.9908 99.7082 85.3906L96.0004 81.4252C92.5874 77.7752 86.8617 77.583 83.2117 80.996C79.5617 84.4089 79.3695 90.1346 82.7824 93.7847Z" fill="#FB61A2"/>
<path d="M120.953 55.4584L117.245 51.493C110.419 44.1929 98.9674 43.8085 91.6673 50.6345L79.3078 37.4165C93.908 23.7646 116.811 24.5334 130.463 39.1335L134.17 43.0989C137.583 46.749 137.391 52.4746 133.741 55.8876C130.091 59.3006 124.365 59.1084 120.953 55.4584Z" fill="#12BBF0"/>
</svg>
