<svg width="19" height="19" viewBox="0 0 19 19" fill="none" xmlns="http://www.w3.org/2000/svg">
<path d="M18.2859 5.324C18.2749 4.567 18.1349 3.816 17.8669 3.108C17.3979 1.899 16.4429 0.943 15.2339 0.475C14.5349 0.212 13.7959 0.0710001 13.0479 0.0550001C12.0859 0.0120001 11.7809 0 9.33894 0C6.89694 0 6.58394 6.70552e-08 5.62894 0.0550001C4.88194 0.0710001 4.14294 0.212 3.44394 0.475C2.23494 0.943 1.27894 1.899 0.810937 3.108C0.547937 3.807 0.405937 4.546 0.391937 5.293C0.348937 6.256 0.335938 6.561 0.335938 9.003C0.335938 11.445 0.335937 11.757 0.391937 12.713C0.406937 13.461 0.547937 14.199 0.810937 14.9C1.27994 16.108 2.23494 17.064 3.44494 17.532C4.14094 17.804 4.87994 17.958 5.62994 17.982C6.59294 18.025 6.89794 18.038 9.33994 18.038C11.7819 18.038 12.0949 18.038 13.0499 17.982C13.7969 17.967 14.5359 17.826 15.2359 17.563C16.4449 17.094 17.3999 16.138 17.8689 14.93C18.1319 14.23 18.2729 13.492 18.2879 12.743C18.3309 11.781 18.3439 11.476 18.3439 9.033C18.3419 6.591 18.3419 6.281 18.2859 5.324ZM9.33294 13.621C6.77894 13.621 4.70994 11.552 4.70994 8.998C4.70994 6.444 6.77894 4.375 9.33294 4.375C11.8849 4.375 13.9559 6.444 13.9559 8.998C13.9559 11.552 11.8849 13.621 9.33294 13.621ZM14.1399 5.282C13.5429 5.282 13.0619 4.8 13.0619 4.204C13.0619 3.608 13.5429 3.126 14.1399 3.126C14.7349 3.126 15.2169 3.608 15.2169 4.204C15.2169 4.8 14.7349 5.282 14.1399 5.282Z" fill="url(#paint0_linear)"/>
<path d="M9.33308 12.0001C10.9916 12.0001 12.3361 10.6557 12.3361 8.99714C12.3361 7.33863 10.9916 5.99414 9.33308 5.99414C7.67457 5.99414 6.33008 7.33863 6.33008 8.99714C6.33008 10.6557 7.67457 12.0001 9.33308 12.0001Z" fill="url(#paint1_linear)"/>
<defs>
<linearGradient id="paint0_linear" x1="9.33994" y1="0" x2="9.33994" y2="18.038" gradientUnits="userSpaceOnUse">
<stop stop-color="#12BBF0"/>
<stop offset="1" stop-color="#5348DA"/>
</linearGradient>
<linearGradient id="paint1_linear" x1="9.33308" y1="5.99414" x2="9.33308" y2="12.0001" gradientUnits="userSpaceOnUse">
<stop stop-color="#12BBF0"/>
<stop offset="1" stop-color="#5348DA"/>
</linearGradient>
</defs>
</svg>
