<svg width="281" height="293" viewBox="0 0 281 293" fill="none" xmlns="http://www.w3.org/2000/svg">
<path d="M127.904 193.395L113.676 190.583C87.483 185.407 70.4457 159.976 75.6223 133.783L28.1953 124.41C17.8421 176.797 51.9168 227.657 104.303 238.01L118.531 240.822C131.628 243.411 144.343 234.892 146.931 221.795C149.52 208.699 141.001 195.984 127.904 193.395Z" fill="#B144E4"/>
<path d="M118.537 240.822L104.309 238.011C78.1159 232.834 52.6856 249.871 47.509 276.064L0.0820312 266.691C10.4352 214.305 61.2957 180.23 113.682 190.584L127.91 193.395C141.007 195.984 149.526 208.699 146.937 221.795C144.349 234.892 131.634 243.411 118.537 240.822Z" fill="#12BBF0"/>
<path d="M161.715 52.2381L175.943 55.05C202.136 60.2266 227.566 43.1893 232.743 16.9961L280.17 26.3691C269.817 78.7556 218.956 112.83 166.57 102.477L152.342 99.6651C139.245 97.0768 130.726 84.3617 133.315 71.2651C135.903 58.1684 148.618 49.6498 161.715 52.2381Z" fill="#B144E4"/>
<path d="M152.342 99.6634L166.57 102.475C192.763 107.652 209.8 133.082 204.624 159.275L252.051 168.648C262.404 116.262 228.329 65.4015 175.943 55.0483L161.715 52.2364C148.618 49.6481 135.903 58.1667 133.315 71.2633C130.726 84.36 139.245 97.0751 152.342 99.6634Z" fill="#FFC148"/>
</svg>
