<svg width="75" height="75" viewBox="0 0 75 75" fill="none" xmlns="http://www.w3.org/2000/svg">
<path d="M32.615 18.9684L36.3228 22.9338C43.1487 30.2339 54.6001 30.6182 61.9002 23.7923L74.2596 37.0103C59.6595 50.6621 36.7567 49.8934 23.1048 35.2932L19.397 31.3278C15.9841 27.6778 16.1762 21.9521 19.8263 18.5391C23.4763 15.1262 29.202 15.3184 32.615 18.9684Z" fill="#B144E4"/>
<path d="M19.3979 31.3272L23.1058 35.2925C29.9317 42.5926 29.5473 54.044 22.2472 60.8699L34.6067 74.0879C49.2068 60.436 49.9756 37.5332 36.3237 22.9331L32.6159 18.9677C29.2029 15.3177 23.4772 15.1255 19.8272 18.5385C16.1772 21.9514 15.985 27.6771 19.3979 31.3272Z" fill="#FB61A2"/>
</svg>
