<svg width="20" height="16" viewBox="0 0 20 16" fill="none" xmlns="http://www.w3.org/2000/svg">
<path d="M17.9767 3.978C17.9897 4.153 17.9897 4.327 17.9897 4.501C17.9897 9.826 13.9367 15.962 6.52975 15.962C4.24775 15.962 2.12775 15.301 0.34375 14.153C0.66775 14.19 0.97975 14.203 1.31675 14.203C3.19975 14.203 4.93275 13.567 6.31775 12.482C4.54675 12.445 3.06275 11.285 2.55075 9.689C2.79975 9.726 3.04975 9.751 3.31175 9.751C3.67275 9.751 4.03575 9.701 4.37275 9.614C2.52575 9.24 1.14275 7.619 1.14275 5.661V5.611C1.67975 5.91 2.30275 6.097 2.96275 6.122C1.87775 5.4 1.16675 4.165 1.16675 2.768C1.16675 2.02 1.36575 1.334 1.71475 0.736C3.69775 3.179 6.67875 4.776 10.0208 4.951C9.95875 4.651 9.92075 4.34 9.92075 4.028C9.92075 1.808 11.7167 0 13.9487 0C15.1087 0 16.1558 0.486 16.8918 1.272C17.8018 1.097 18.6738 0.76 19.4478 0.299C19.1488 1.234 18.5118 2.02 17.6768 2.519C18.4878 2.431 19.2738 2.207 19.9958 1.895C19.4478 2.693 18.7627 3.404 17.9767 3.978Z" fill="#12BBF0"/>
</svg>
