<svg width="454" height="564" viewBox="0 0 454 564" fill="none" xmlns="http://www.w3.org/2000/svg">
<path d="M366.597 416.504L356.691 427.097C338.455 446.6 307.863 447.627 288.36 429.391L255.342 464.703C294.347 501.174 355.532 499.121 392.003 460.116L401.909 449.522C411.027 439.771 410.513 424.475 400.762 415.357C391.011 406.239 375.715 406.753 366.597 416.504Z" fill="#B144E4"/>
<path d="M401.91 449.515L392.004 460.109C373.769 479.611 374.796 510.204 394.298 528.44L361.279 563.752C322.275 527.281 320.221 466.095 356.692 427.09L366.598 416.497C375.716 406.746 391.012 406.232 400.763 415.35C410.514 424.468 411.028 439.764 401.91 449.515Z" fill="#12BBF0"/>
<path d="M264.619 313.203L274.525 302.61C292.761 283.107 291.734 252.515 272.231 234.279L305.25 198.967C344.255 235.438 346.308 296.624 309.837 335.628L299.932 346.222C290.814 355.973 275.517 356.487 265.766 347.369C256.015 338.251 255.502 322.954 264.619 313.203Z" fill="#B144E4"/>
<path d="M299.927 346.225L309.832 335.631C328.068 316.129 358.661 315.102 378.163 333.338L411.182 298.025C372.177 261.554 310.992 263.608 274.52 302.612L264.615 313.206C255.497 322.957 256.01 338.254 265.761 347.371C275.513 356.489 290.809 355.976 299.927 346.225Z" fill="#12BBF0"/>
<path d="M154.722 218.389L144.816 228.982C126.58 248.485 95.9877 249.511 76.4854 231.276L43.4668 266.588C82.4715 303.059 143.657 301.006 180.128 262.001L190.034 251.407C199.152 241.656 198.638 226.36 188.887 217.242C179.136 208.124 163.84 208.637 154.722 218.389Z" fill="#B144E4"/>
<path d="M190.033 251.406L180.127 262C161.892 281.502 162.919 312.095 182.421 330.33L149.402 365.643C110.398 329.171 108.344 267.986 144.815 228.981L154.721 218.387C163.839 208.636 179.135 208.123 188.886 217.241C198.637 226.359 199.151 241.655 190.033 251.406Z" fill="#12BBF0"/>
<path d="M52.7444 115.092L62.65 104.498C80.8856 84.996 79.8588 54.4033 60.3564 36.1676L93.375 0.855469C132.38 37.3268 134.433 98.5122 97.9621 137.517L88.0565 148.111C78.9387 157.862 63.6423 158.375 53.8912 149.257C44.14 140.14 43.6265 124.843 52.7444 115.092Z" fill="#B144E4"/>
<path d="M88.0576 148.109L97.9632 137.516C116.199 118.013 146.792 116.987 166.294 135.222L199.312 99.9102C160.308 63.4388 99.1224 65.4925 62.651 104.497L52.7455 115.091C43.6276 124.842 44.141 140.138 53.8922 149.256C63.6434 158.374 78.9398 157.861 88.0576 148.109Z" fill="#12BBF0"/>
</svg>
