<svg width="61" height="64" viewBox="0 0 61 64" fill="none" xmlns="http://www.w3.org/2000/svg">
<path d="M16.5473 20.3956L21.8731 21.4482C31.6777 23.3858 41.1967 17.0085 43.1344 7.2039L60.8871 10.7124C57.0118 30.3216 37.9738 43.0763 18.3646 39.2009L13.0388 38.1484C8.13649 37.1795 4.9478 32.42 5.91665 27.5177C6.88549 22.6154 11.645 19.4268 16.5473 20.3956Z" fill="#B144E4"/>
<path d="M13.0391 38.1474L18.365 39.2C28.1695 41.1376 34.5469 50.6566 32.6092 60.4612L50.362 63.9697C54.2374 44.3606 41.4826 25.3226 21.8735 21.4472L16.5476 20.3946C11.6453 19.4258 6.88585 22.6145 5.917 27.5168C4.94815 32.4191 8.13684 37.1786 13.0391 38.1474Z" fill="#FFC148"/>
</svg>
