<svg width="61" height="64" viewBox="0 0 61 64" fill="none" xmlns="http://www.w3.org/2000/svg">
<path d="M15.8932 19.5071L21.219 20.5596C31.0236 22.4973 40.5426 16.1199 42.4803 6.31535L60.233 9.82385C56.3576 29.433 37.3197 42.1878 17.7105 38.3124L12.3847 37.2598C7.48238 36.291 4.29369 31.5315 5.26254 26.6292C6.23139 21.7269 10.9909 18.5382 15.8932 19.5071Z" fill="#B144E4"/>
<path d="M12.385 37.259L17.7109 38.3115C27.5154 40.2492 33.8928 49.7682 31.9551 59.5728L49.7079 63.0813C53.5833 43.4721 40.8285 24.4342 21.2194 20.5588L15.8935 19.5062C10.9913 18.5374 6.23176 21.726 5.26291 26.6283C4.29406 31.5306 7.48275 36.2901 12.385 37.259Z" fill="#FFC148"/>
</svg>
