<svg width="24" height="16" viewBox="0 0 24 16" fill="none" xmlns="http://www.w3.org/2000/svg">
<path d="M22.5895 2.51556C22.3268 1.53583 21.5561 0.762782 20.5775 0.499009C18.7893 0.00800158 11.6354 8.67428e-06 11.6354 8.67428e-06C11.6354 8.67428e-06 4.48273 -0.0079847 2.6934 0.461327C1.73423 0.722817 0.941764 1.513 0.676848 2.49158C0.205253 4.27976 0.200685 7.98858 0.200685 7.98858C0.200685 7.98858 0.196118 11.7157 0.664287 13.4856C0.926919 14.4642 1.69769 15.2372 2.67742 15.501C4.48387 15.992 11.6183 16 11.6183 16C11.6183 16 18.7722 16.008 20.5604 15.5398C21.5378 15.2772 22.312 14.5053 22.5781 13.5267C23.0508 11.7396 23.0542 8.03197 23.0542 8.03197C23.0542 8.03197 23.0771 4.30374 22.5895 2.51556ZM9.34712 11.4245L9.35283 4.57323L15.2986 8.00457L9.34712 11.4245Z" fill="#12BBF0"/>
</svg>
